HIERARCHY
ROOT Hips
{
	OFFSET 0.000000 97.167313 0.000000
	CHANNELS 6 Xposition Yposition Zposition Xrotation Yrotation Zrotation
	JOINT Spine
	{
		OFFSET 0.000000 13.784798 0.064400
		CHANNELS 3 Xrotation Yrotation Zrotation
		JOINT Spine1
		{
			OFFSET 0.000000 12.037903 0.404700
			CHANNELS 3 Xrotation Yrotation Zrotation
			JOINT Spine2
			{
				OFFSET 0.000000 17.795601 0.420200
				CHANNELS 3 Xrotation Yrotation Zrotation
				JOINT Neck
				{
					OFFSET 0.000000 39.131302 11.954600
					CHANNELS 3 Xrotation Yrotation Zrotation
					JOINT Head
					{
						OFFSET 0.000000 14.456192 15.627699
						CHANNELS 3 Xrotation Yrotation Zrotation
						JOINT HeadTop_End
						{
							OFFSET 0.000000 15.703506 7.603401
							CHANNELS 3 Xrotation Yrotation Zrotation
							End Site
							{
								OFFSET 0.000000 17.447403 0.000000
							}
						}
					}
				}
				JOINT LeftShoulder
				{
					OFFSET 17.399500 24.608795 1.168800
					CHANNELS 3 Xrotation Yrotation Zrotation
					JOINT LeftArm
					{
						OFFSET 18.980635 5.765305 1.818600
						CHANNELS 3 Xrotation Yrotation Zrotation
						JOINT LeftForeArm
						{
							OFFSET 49.290169 0.000000 0.000000
							CHANNELS 3 Xrotation Yrotation Zrotation
							JOINT LeftHand
							{
								OFFSET 31.562012 0.000000 0.000000
								CHANNELS 3 Xrotation Yrotation Zrotation
								JOINT LeftHandThumb1
								{
									OFFSET 6.133995 -4.388519 7.076070
									CHANNELS 3 Xrotation Yrotation Zrotation
									JOINT LeftHandThumb2
									{
										OFFSET 6.037666 -3.485840 3.485847
										CHANNELS 3 Xrotation Yrotation Zrotation
										JOINT LeftHandThumb3
										{
											OFFSET 6.496506 -3.750763 3.750761
											CHANNELS 3 Xrotation Yrotation Zrotation
											JOINT LeftHandThumb4
											{
												OFFSET 5.616882 -3.242905 3.242910
												CHANNELS 3 Xrotation Yrotation Zrotation
												End Site
												{
													OFFSET -1.254608 7.132141 0.375429
												}
											}
										}
									}
								}
								JOINT LeftHandPinky1
								{
									OFFSET 18.920792 -0.453171 -11.426712
									CHANNELS 3 Xrotation Yrotation Zrotation
									JOINT LeftHandPinky2
									{
										OFFSET 4.919586 0.000000 0.000000
										CHANNELS 3 Xrotation Yrotation Zrotation
										JOINT LeftHandPinky3
										{
											OFFSET 5.233047 0.000000 0.000000
											CHANNELS 3 Xrotation Yrotation Zrotation
											JOINT LeftHandPinky4
											{
												OFFSET 5.571716 0.000000 0.000000
												CHANNELS 3 Xrotation Yrotation Zrotation
												End Site
												{
													OFFSET -3.459808 4.342407 -0.466164
												}
											}
										}
									}
								}
								JOINT LeftHandRing1
								{
									OFFSET 22.726120 -0.094986 -6.500475
									CHANNELS 3 Xrotation Yrotation Zrotation
									JOINT LeftHandRing2
									{
										OFFSET 6.408615 0.000000 0.000000
										CHANNELS 3 Xrotation Yrotation Zrotation
										JOINT LeftHandRing3
										{
											OFFSET 6.150223 0.000000 0.000000
											CHANNELS 3 Xrotation Yrotation Zrotation
											JOINT LeftHandRing4
											{
												OFFSET 6.145386 0.000000 0.000000
												CHANNELS 3 Xrotation Yrotation Zrotation
												End Site
												{
													OFFSET -3.671402 4.923981 -0.202372
												}
											}
										}
									}
								}
								JOINT LeftHandMiddle1
								{
									OFFSET 23.373947 0.000000 0.000001
									CHANNELS 3 Xrotation Yrotation Zrotation
									JOINT LeftHandMiddle2
									{
										OFFSET 6.996567 0.000000 0.000000
										CHANNELS 3 Xrotation Yrotation Zrotation
										JOINT LeftHandMiddle3
										{
											OFFSET 7.015945 0.000000 0.000000
											CHANNELS 3 Xrotation Yrotation Zrotation
											JOINT LeftHandMiddle4
											{
												OFFSET 7.721573 0.000000 0.000000
												CHANNELS 3 Xrotation Yrotation Zrotation
												End Site
												{
													OFFSET -4.651108 6.158463 0.251582
												}
											}
										}
									}
								}
								JOINT LeftHandIndex1
								{
									OFFSET 21.310577 -0.490082 6.209344
									CHANNELS 3 Xrotation Yrotation Zrotation
									JOINT LeftHandIndex2
									{
										OFFSET 7.536453 0.000000 0.000000
										CHANNELS 3 Xrotation Yrotation Zrotation
										JOINT LeftHandIndex3
										{
											OFFSET 7.512344 0.000000 0.000000
											CHANNELS 3 Xrotation Yrotation Zrotation
											JOINT LeftHandIndex4
											{
												OFFSET 10.212402 0.000000 0.000001
												CHANNELS 3 Xrotation Yrotation Zrotation
												End Site
												{
													OFFSET -5.180801 8.690506 1.388433
												}
											}
										}
									}
								}
							}
						}
					}
				}
				JOINT RightShoulder
				{
					OFFSET -17.399500 24.608795 1.168800
					CHANNELS 3 Xrotation Yrotation Zrotation
					JOINT RightArm
					{
						OFFSET -18.980635 5.765305 1.818600
						CHANNELS 3 Xrotation Yrotation Zrotation
						JOINT RightForeArm
						{
							OFFSET -49.290169 0.000000 0.000000
							CHANNELS 3 Xrotation Yrotation Zrotation
							JOINT RightHand
							{
								OFFSET -31.562012 0.000000 0.000000
								CHANNELS 3 Xrotation Yrotation Zrotation
								JOINT RightHandThumb1
								{
									OFFSET -6.133995 -4.388519 7.076070
									CHANNELS 3 Xrotation Yrotation Zrotation
									JOINT RightHandThumb2
									{
										OFFSET -6.037666 -3.485840 3.485847
										CHANNELS 3 Xrotation Yrotation Zrotation
										JOINT RightHandThumb3
										{
											OFFSET -6.496506 -3.750763 3.750761
											CHANNELS 3 Xrotation Yrotation Zrotation
											JOINT RightHandThumb4
											{
												OFFSET -5.616882 -3.242905 3.242910
												CHANNELS 3 Xrotation Yrotation Zrotation
												End Site
												{
													OFFSET 1.254608 7.132141 0.375429
												}
											}
										}
									}
								}
								JOINT RightHandIndex1
								{
									OFFSET -21.310577 -0.490082 6.209344
									CHANNELS 3 Xrotation Yrotation Zrotation
									JOINT RightHandIndex2
									{
										OFFSET -7.536453 0.000000 0.000000
										CHANNELS 3 Xrotation Yrotation Zrotation
										JOINT RightHandIndex3
										{
											OFFSET -7.512344 0.000000 0.000000
											CHANNELS 3 Xrotation Yrotation Zrotation
											JOINT RightHandIndex4
											{
												OFFSET -10.212402 0.000000 0.000001
												CHANNELS 3 Xrotation Yrotation Zrotation
												End Site
												{
													OFFSET 5.180801 8.690506 1.388433
												}
											}
										}
									}
								}
								JOINT RightHandMiddle1
								{
									OFFSET -23.373947 0.000000 0.000001
									CHANNELS 3 Xrotation Yrotation Zrotation
									JOINT RightHandMiddle2
									{
										OFFSET -6.996567 0.000000 0.000000
										CHANNELS 3 Xrotation Yrotation Zrotation
										JOINT RightHandMiddle3
										{
											OFFSET -7.015945 0.000000 0.000000
											CHANNELS 3 Xrotation Yrotation Zrotation
											JOINT RightHandMiddle4
											{
												OFFSET -7.721573 0.000000 0.000000
												CHANNELS 3 Xrotation Yrotation Zrotation
												End Site
												{
													OFFSET 4.651108 6.158463 0.251582
												}
											}
										}
									}
								}
								JOINT RightHandRing1
								{
									OFFSET -22.726120 -0.094986 -6.500475
									CHANNELS 3 Xrotation Yrotation Zrotation
									JOINT RightHandRing2
									{
										OFFSET -6.408615 0.000000 0.000000
										CHANNELS 3 Xrotation Yrotation Zrotation
										JOINT RightHandRing3
										{
											OFFSET -6.150223 0.000000 0.000000
											CHANNELS 3 Xrotation Yrotation Zrotation
											JOINT RightHandRing4
											{
												OFFSET -6.145386 0.000000 0.000000
												CHANNELS 3 Xrotation Yrotation Zrotation
												End Site
												{
													OFFSET 3.671402 4.923981 -0.202372
												}
											}
										}
									}
								}
								JOINT RightHandPinky1
								{
									OFFSET -18.920792 -0.453171 -11.426712
									CHANNELS 3 Xrotation Yrotation Zrotation
									JOINT RightHandPinky2
									{
										OFFSET -4.919586 0.000000 0.000000
										CHANNELS 3 Xrotation Yrotation Zrotation
										JOINT RightHandPinky3
										{
											OFFSET -5.233047 0.000000 0.000000
											CHANNELS 3 Xrotation Yrotation Zrotation
											JOINT RightHandPinky4
											{
												OFFSET -5.571716 0.000000 0.000000
												CHANNELS 3 Xrotation Yrotation Zrotation
												End Site
												{
													OFFSET 3.459808 4.342407 -0.466164
												}
											}
										}
									}
								}
							}
						}
					}
				}
			}
		}
	}
	JOINT LeftUpLeg
	{
		OFFSET 19.899099 -7.885101 -3.429500
		CHANNELS 3 Xrotation Yrotation Zrotation
		JOINT LeftLeg
		{
			OFFSET 1.745560 -36.997807 10.304700
			CHANNELS 3 Xrotation Yrotation Zrotation
			JOINT LeftFoot
			{
				OFFSET -1.745558 -29.803308 -13.615400
				CHANNELS 3 Xrotation Yrotation Zrotation
				JOINT LeftToeBase
				{
					OFFSET 1.181900 -18.539904 15.226099
					CHANNELS 3 Xrotation Yrotation Zrotation
					JOINT LeftToe_End
					{
						OFFSET -0.863701 1.402801 16.534700
						CHANNELS 3 Xrotation Yrotation Zrotation
						End Site
						{
							OFFSET 0.000000 16.616566 0.000000
						}
					}
				}
			}
		}
	}
	JOINT RightUpLeg
	{
		OFFSET -19.899099 -7.885101 -3.429500
		CHANNELS 3 Xrotation Yrotation Zrotation
		JOINT RightLeg
		{
			OFFSET -1.745560 -36.997807 10.304700
			CHANNELS 3 Xrotation Yrotation Zrotation
			JOINT RightFoot
			{
				OFFSET 1.745558 -29.803308 -13.615400
				CHANNELS 3 Xrotation Yrotation Zrotation
				JOINT RightToeBase
				{
					OFFSET -1.181900 -18.539904 15.226099
					CHANNELS 3 Xrotation Yrotation Zrotation
					JOINT RightToe_End
					{
						OFFSET 0.863701 1.402801 16.534700
						CHANNELS 3 Xrotation Yrotation Zrotation
						End Site
						{
							OFFSET 0.000000 16.616566 0.000000
						}
					}
				}
			}
		}
	}
}
MOTION
Frames: 6
Frame Time: 0.033333
-2.288456 55.378639 1.662568 11.838135 -49.944751 11.550886 11.575377 3.480721 -0.531780 7.197296 6.092993 -0.801774 -4.718385 6.127106 0.473452 0.009014 22.524793 2.184058 0.338099 11.269377 -10.612895 -0.000001 -0.000000 -0.000000 -1.239602 1.472927 1.712272 -74.523333 5.458164 -6.521220 115.644064 -46.114149 107.177491 32.013025 -10.147913 33.513471 21.113037 -10.780629 7.908425 -1.150236 11.255280 -8.400819 5.706541 8.483098 -0.820733 0.000001 0.000002 0.000001 7.959348 15.294880 -16.105735 -0.806532 -0.064884 -12.959446 -2.164836 0.133281 -26.712486 -0.000000 0.000002 -0.000002 3.024616 7.938956 -14.103506 -0.708023 -0.566236 -18.895682 -0.726327 -0.705033 -22.058429 -0.000001 -0.000000 0.000005 1.884718 4.663350 -4.597387 0.476683 -1.009780 -12.986476 0.628559 -1.346654 -16.553985 0.000001 -0.000004 0.000004 -1.232807 -5.771939 -0.192368 0.133826 -0.197654 -4.602164 0.055744 -0.448216 -7.568154 0.000001 0.000001 0.000003 -0.833017 27.626508 -1.828728 -70.151042 58.482259 76.509908 -8.785626 38.818967 7.744554 3.019160 10.477530 -21.964212 55.149563 18.649533 -29.698284 -0.442613 -14.180588 7.313065 21.667023 -29.244493 9.142399 0.000000 0.000000 -0.000003 5.673396 7.584983 36.844117 1.050486 3.824501 68.900305 0.499554 3.026075 62.196468 0.000003 0.000003 0.000004 -0.125645 1.886082 45.000691 -1.169021 3.204624 68.417725 -0.936468 1.813644 41.107565 0.000001 -0.000002 -0.000009 -5.311978 1.216667 58.508814 -0.745221 1.667587 48.011288 -0.816516 1.840663 53.666589 0.000001 -0.000003 -0.000003 -7.756785 -9.376507 47.263936 -0.526030 1.541582 45.600556 -0.508157 0.803429 24.986601 -0.000001 -0.000004 0.000004 -82.007827 3.959064 51.002853 71.387109 -23.602052 2.553291 3.483544 3.668122 -15.813952 -0.691519 -6.106927 1.240390 -0.000000 -0.000000 0.000000 -31.740879 11.391754 -44.765616 76.971116 20.607067 -0.092543 -47.883103 -11.785622 27.068859 0.528317 2.970174 1.471354 -0.000000 0.000001 0.000000 
-2.261456 55.315872 1.720165 11.504022 -50.062237 11.278824 11.548776 3.546972 -0.484196 7.142548 6.224968 -0.717119 -4.775918 6.238841 0.583738 0.784446 22.524890 1.630483 0.320508 10.989900 -10.045473 -0.000000 -0.000000 -0.000000 -1.355739 1.594426 1.988742 -74.684444 6.989795 -5.383850 119.524677 -48.328639 111.331988 32.461577 -10.188868 33.239635 21.412387 -10.826033 7.709632 -1.058094 11.376660 -8.414845 5.650025 8.583525 -0.616129 -0.000001 -0.000001 0.000001 8.866848 15.568276 -15.080831 -0.790098 -0.007636 -12.129242 -2.105803 -0.117411 -26.321433 0.000003 -0.000001 -0.000002 2.996517 7.929910 -14.613849 -0.714032 -0.590772 -19.496925 -0.738039 -0.735987 -22.846211 -0.000000 0.000001 0.000003 1.967564 4.609552 -6.052454 0.451174 -1.095762 -14.433050 0.592112 -1.449599 -18.190474 0.000002 -0.000004 0.000004 -1.229796 -5.816553 -1.275230 0.129526 -0.246490 -5.685271 0.046890 -0.499597 -8.651131 -0.000001 0.000003 0.000001 -0.806808 27.673632 -1.943078 -68.791425 58.340477 75.008605 -8.741182 40.796286 7.998908 3.004775 9.966233 -21.583569 55.149611 18.649567 -29.698301 -0.442665 -14.180680 7.313399 21.667004 -29.244510 9.142387 0.000001 0.000000 -0.000003 5.673217 7.584782 36.844202 1.050427 3.824756 68.900257 0.499546 3.026025 62.196481 0.000000 -0.000001 -0.000001 -0.125550 1.886144 45.000763 -1.168963 3.204621 68.417663 -0.936413 1.814034 41.107521 0.000001 -0.000001 -0.000009 -5.311988 1.216696 58.508787 -0.745135 1.667634 48.011292 -0.816464 1.840234 53.666610 0.000003 -0.000001 -0.000000 -7.756790 -9.376467 47.263970 -0.526080 1.541484 45.600525 -0.508207 0.803459 24.986630 -0.000000 -0.000000 0.000006 -81.734572 3.836359 51.004547 71.669202 -23.613031 2.599757 3.248900 3.784461 -15.853019 -0.660573 -6.091419 1.219699 0.000000 0.000001 0.000000 -31.612970 11.354832 -44.810474 77.023388 20.741982 -0.202691 -47.892767 -11.779278 27.074001 0.528317 2.970181 1.471354 -0.000000 0.000003 -0.000000 
-2.198241 55.245560 1.772750 11.079022 -50.326097 11.011599 11.539268 3.634074 -0.435463 7.123719 6.407581 -0.650684 -4.798766 6.403824 0.686764 1.947348 22.800387 0.814941 0.381364 10.864762 -9.485640 0.000001 -0.000000 -0.000000 -1.635017 1.991735 2.337621 -74.728000 7.862068 -4.401158 123.811099 -51.024559 115.504660 32.691556 -9.700067 32.911895 22.239422 -10.962656 7.161861 -0.802882 11.712361 -8.454756 5.492778 8.859379 -0.049188 0.000000 -0.000000 -0.000002 9.917413 15.766816 -14.828327 -0.773036 0.017855 -12.116803 -2.200017 -0.716872 -27.215218 -0.000003 -0.000001 0.000003 2.923786 7.903384 -15.902174 -0.730922 -0.655189 -21.082827 -0.771972 -0.818063 -24.957472 -0.000000 0.000001 0.000003 2.081229 4.543293 -8.184938 0.408998 -1.220065 -16.553435 0.529702 -1.609731 -20.836216 0.000001 -0.000000 0.000001 -1.228836 -5.890423 -3.072260 0.120374 -0.327190 -7.482160 0.029910 -0.584421 -10.447992 -0.000002 0.000005 0.000002 -0.782546 27.683863 -1.922587 -66.983214 58.202938 72.706612 -8.986000 43.849046 8.615208 2.724756 8.456796 -21.036236 55.149618 18.649550 -29.698305 -0.442779 -14.180700 7.313688 21.667021 -29.244538 9.142401 0.000000 -0.000001 -0.000001 5.673030 7.584523 36.844270 1.050388 3.824933 68.900230 0.499548 3.026047 62.196433 -0.000000 -0.000002 0.000003 -0.125405 1.886155 45.000780 -1.168925 3.204624 68.417657 -0.936420 1.814433 41.107555 -0.000000 0.000002 -0.000006 -5.311982 1.216637 58.508855 -0.744968 1.667786 48.011271 -0.816419 1.839915 53.666596 0.000000 -0.000001 -0.000003 -7.756778 -9.376495 47.263949 -0.526116 1.541419 45.600532 -0.508193 0.803420 24.986589 -0.000002 -0.000002 0.000002 -81.191217 3.732549 51.062419 71.983043 -23.587505 2.562233 2.877683 4.016891 -15.932997 -0.639048 -6.096696 1.208801 0.000000 0.000000 0.000000 -31.639393 11.439191 -44.877741 77.142007 20.957761 -0.416610 -47.770889 -11.732064 27.089044 0.528317 2.970178 1.471354 -0.000000 0.000004 0.000000 
-2.046319 55.183846 1.833498 10.841624 -50.920918 10.863652 11.499289 3.787836 -0.337314 7.042339 6.765993 -0.497868 -4.888243 6.723016 0.910963 4.059549 23.004410 -0.908184 0.363458 10.356519 -8.002507 -0.000001 0.000000 -0.000000 -1.986399 3.089227 2.577749 -74.042836 8.352426 -4.052234 128.222007 -53.828864 119.817965 32.945797 -8.781804 32.791209 23.485993 -11.199841 6.339989 -0.409322 12.213869 -8.515232 5.244971 9.275752 0.807661 0.000002 -0.000001 -0.000003 11.057986 15.920848 -15.095816 -0.754590 0.034176 -12.313165 -2.486117 -1.556276 -28.436246 0.000000 0.000001 -0.000007 2.807905 7.847544 -18.029976 -0.755360 -0.736744 -23.112223 -0.823481 -0.924603 -27.670251 -0.000003 -0.000002 0.000003 2.219017 4.459416 -10.879127 0.348740 -1.374518 -19.232969 0.442162 -1.811008 -24.309910 -0.000003 0.000000 0.000008 -1.227990 -5.990416 -5.432802 0.104587 -0.432675 -9.842751 0.003613 -0.694891 -12.808384 -0.000003 0.000004 0.000000 -0.737627 27.898113 -1.994297 -65.080194 57.860944 70.210499 -9.406366 47.182086 9.442188 2.440858 6.514368 -20.212222 55.149570 18.649575 -29.698298 -0.442837 -14.180821 7.314047 21.667032 -29.244558 9.142417 -0.000000 -0.000001 0.000001 5.672824 7.584263 36.844308 1.050363 3.825142 68.900244 0.499546 3.026075 62.196502 -0.000000 -0.000001 -0.000001 -0.125327 1.886118 45.000783 -1.168865 3.204624 68.417732 -0.936382 1.814844 41.107511 -0.000002 0.000004 -0.000004 -5.311981 1.216664 58.508814 -0.744919 1.667879 48.011264 -0.816387 1.839538 53.666654 0.000003 0.000001 -0.000008 -7.756792 -9.376481 47.263936 -0.526170 1.541336 45.600542 -0.508146 0.803452 24.986610 0.000001 -0.000004 0.000002 -80.405069 3.504898 51.332253 72.390559 -23.572509 2.370373 2.230364 4.498993 -16.071877 -0.558313 -6.092962 1.173809 0.000000 0.000000 0.000000 -32.290003 11.748493 -44.694623 77.266891 21.218099 -0.849836 -47.201894 -11.592740 27.176718 0.528318 2.970179 1.471354 -0.000000 0.000003 -0.000000 
-1.731544 55.164055 1.915271 11.222231 -52.302112 11.190266 11.426272 4.083964 -0.153058 6.892595 7.506534 -0.205251 -5.055778 7.387287 1.351832 7.584090 22.692344 -4.279168 0.080849 9.004221 -5.209078 -0.000001 0.000000 0.000000 -2.263555 3.875417 2.304852 -73.417785 10.063540 -1.382890 136.248586 -55.261042 128.787315 32.352557 -7.133099 30.537386 25.043237 -11.548917 5.320432 0.084235 12.843039 -8.592001 4.929881 9.789157 1.887851 0.000002 0.000000 0.000002 12.236737 16.072443 -15.627997 -0.735539 0.065165 -12.109201 -3.006690 -2.515010 -29.030254 0.000003 0.000001 -0.000000 2.647332 7.752584 -21.058354 -0.781651 -0.813154 -25.043978 -0.880505 -1.028920 -30.262290 -0.000000 0.000005 0.000004 2.374239 4.353005 -14.019394 0.269221 -1.550625 -22.357077 0.321403 -2.040728 -28.430048 0.000002 -0.000001 0.000001 -1.228017 -6.112493 -8.206613 0.080438 -0.555512 -12.616629 -0.033093 -0.823134 -15.582178 -0.000001 0.000001 -0.000001 -0.489690 28.265888 -2.874949 -64.483263 57.098462 68.655812 -10.096001 49.942131 10.581726 2.295989 5.360144 -17.760573 55.149584 18.649533 -29.698264 -0.442909 -14.180896 7.314343 21.667016 -29.244507 9.142429 -0.000001 0.000000 0.000001 5.672661 7.584007 36.844342 1.050332 3.825354 68.900230 0.499556 3.026059 62.196474 -0.000004 -0.000001 -0.000001 -0.125187 1.886137 45.000794 -1.168820 3.204624 68.417704 -0.936410 1.815264 41.107521 -0.000001 -0.000001 -0.000006 -5.311982 1.216643 58.508835 -0.744794 1.668016 48.011268 -0.816328 1.839136 53.666627 -0.000001 0.000001 -0.000003 -7.756777 -9.376496 47.263973 -0.526203 1.541228 45.600511 -0.508129 0.803457 24.986601 -0.000003 -0.000002 0.000005 -79.169740 3.176962 52.233557 72.905794 -23.632311 1.780790 1.009359 5.440828 -16.270340 -0.450574 -6.075654 1.156010 0.000000 0.000002 -0.000000 -34.455132 12.595816 -43.868034 77.378161 21.553582 -1.783527 -45.607205 -11.247184 27.427431 0.528318 2.970179 1.471354 -0.000000 -0.000001 -0.000000 
-1.349648 55.076347 1.980849 13.302780 -55.486094 12.945036 11.426439 4.467546 0.121722 6.886618 8.618044 0.223052 -5.091140 8.386498 2.003610 14.610833 23.822394 -9.866858 -2.970904 9.165606 -2.687397 0.000001 0.000000 0.000000 -2.580297 4.342755 1.868795 -76.665260 18.762285 6.845031 154.770475 -47.001868 152.649004 32.040349 -4.408998 18.599997 26.801521 -12.014108 4.179715 0.645048 13.557431 -8.681662 4.566473 10.360119 3.122135 -0.000001 0.000002 -0.000002 13.514935 16.715892 -15.206585 -0.718455 0.150107 -10.510290 -3.778704 -3.468036 -27.466199 -0.000002 -0.000000 -0.000004 2.435469 7.602654 -25.237112 -0.795142 -0.847706 -25.937386 -0.905496 -1.087709 -31.494245 -0.000002 0.000002 0.000000 2.539398 4.220218 -17.489878 0.170276 -1.739878 -25.811268 0.165927 -2.283880 -33.015184 0.000001 -0.000002 0.000004 -1.235019 -6.246124 -11.244090 0.047793 -0.688688 -15.653472 -0.080379 -0.961322 -18.618974 -0.000000 0.000001 0.000001 -0.227420 28.611483 -3.920017 -64.643321 56.457118 68.131424 -8.975372 51.936898 10.842286 1.450962 9.697573 -12.227526 56.821539 18.256872 -30.197967 0.056240 -14.817219 7.388442 20.979910 -29.989288 8.104355 -0.000000 -0.000001 -0.000000 5.614189 7.918801 38.898890 0.925686 3.935632 70.738896 0.387984 3.138451 64.271117 -0.000000 0.000004 0.000001 -0.253221 1.839516 46.990161 -1.280876 3.263260 70.406287 -1.020458 1.902750 44.073824 -0.000003 -0.000003 -0.000006 -5.916948 1.003638 61.134906 -0.825414 1.773883 50.698534 -0.950080 1.983390 57.247961 -0.000001 -0.000001 -0.000000 -7.995579 -9.738011 49.902031 -0.606822 1.649813 48.288252 -1.133070 1.899890 28.773985 -0.000000 -0.000001 0.000000 -76.925176 2.732811 55.064992 73.513592 -24.117401 0.261797 -1.352642 7.154142 -16.813977 -0.396148 -6.027659 1.089677 -0.000000 -0.000000 -0.000000 -39.133442 15.486527 -42.999702 76.710264 20.330738 -1.926819 -41.548102 -8.211512 29.858531 0.528318 2.970178 1.471355 0.000000 0.000001 -0.000000 
